{
  "asset": {
    "version": "2.0",
    "generator": "3dpea GLTFExporter"
  },
  "scenes": [
    {
      "name": "AuxScene",
      "nodes": [
        13
      ]
    }
  ],
  "scene": 0,
  "nodes": [
    {
      "name": "KD300",
      "mesh": 0
    },
    {
      "name": "KD300",
      "children": [
        0
      ]
    },
    {
      "name": "8mm_hortum",
      "mesh": 1
    },
    {
      "name": "8mm_hortum",
      "children": [
        2
      ]
    },
    {
      "name": "6mm_hortum",
      "mesh": 2
    },
    {
      "name": "6mm_hortum",
      "children": [
        4
      ]
    },
    {
      "name": "6mm_hortum",
      "mesh": 3
    },
    {
      "name": "6mm_hortum",
      "children": [
        6
      ]
    },
    {
      "name": "6mm_hortum",
      "mesh": 4
    },
    {
      "name": "6mm_hortum",
      "children": [
        8
      ]
    },
    {
      "name": "6mm_hortum",
      "mesh": 5
    },
    {
      "name": "6mm_hortum",
      "children": [
        10
      ]
    },
    {
      "name": "KD300",
      "children": [
        1,
        3,
        5,
        7,
        9,
        11
      ]
    },
    {
      "name": "KD300",
      "children": [
        12
      ]
    }
  ],
  "bufferViews": [
    {
      "buffer": 0,
      "byteOffset": 0,
      "byteLength": 70956,
      "target": 34962,
      "byteStride": 12
    },
    {
      "buffer": 0,
      "byteOffset": 70956,
      "byteLength": 70956,
      "target": 34962,
      "byteStride": 12
    },
    {
      "buffer": 0,
      "byteOffset": 141912,
      "byteLength": 39048,
      "target": 34963
    },
    {
      "buffer": 0,
      "byteOffset": 180960,
      "byteLength": 6792,
      "target": 34962,
      "byteStride": 12
    },
    {
      "buffer": 0,
      "byteOffset": 187752,
      "byteLength": 6792,
      "target": 34962,
      "byteStride": 12
    },
    {
      "buffer": 0,
      "byteOffset": 194544,
      "byteLength": 5484,
      "target": 34963
    },
    {
      "buffer": 0,
      "byteOffset": 200028,
      "byteLength": 6792,
      "target": 34962,
      "byteStride": 12
    },
    {
      "buffer": 0,
      "byteOffset": 206820,
      "byteLength": 6792,
      "target": 34962,
      "byteStride": 12
    },
    {
      "buffer": 0,
      "byteOffset": 213612,
      "byteLength": 5484,
      "target": 34963
    },
    {
      "buffer": 0,
      "byteOffset": 219096,
      "byteLength": 6792,
      "target": 34962,
      "byteStride": 12
    },
    {
      "buffer": 0,
      "byteOffset": 225888,
      "byteLength": 6792,
      "target": 34962,
      "byteStride": 12
    },
    {
      "buffer": 0,
      "byteOffset": 232680,
      "byteLength": 5484,
      "target": 34963
    },
    {
      "buffer": 0,
      "byteOffset": 238164,
      "byteLength": 6792,
      "target": 34962,
      "byteStride": 12
    },
    {
      "buffer": 0,
      "byteOffset": 244956,
      "byteLength": 6792,
      "target": 34962,
      "byteStride": 12
    },
    {
      "buffer": 0,
      "byteOffset": 251748,
      "byteLength": 5484,
      "target": 34963
    },
    {
      "buffer": 0,
      "byteOffset": 257232,
      "byteLength": 6792,
      "target": 34962,
      "byteStride": 12
    },
    {
      "buffer": 0,
      "byteOffset": 264024,
      "byteLength": 6792,
      "target": 34962,
      "byteStride": 12
    },
    {
      "buffer": 0,
      "byteOffset": 270816,
      "byteLength": 5484,
      "target": 34963
    }
  ],
  "buffers": [
    {
      "byteLength": 276300,
      "uri": "data:application/octet-stream;base64,"
    }
  ],
  "accessors": [
    {
      "bufferView": 0,
      "componentType": 5126,
      "count": 5913,
      "max": [
        305.1123352050781,
        234.3148193359375,
        277.94598388671875
      ],
      "min": [
        25.112346649169922,
        75.8148193359375,
        51.64598846435547
      ],
      "type": "VEC3"
    },
    {
      "bufferView": 1,
      "componentType": 5126,
      "count": 5913,
      "max": [
        1,
        1,
        1
      ],
      "min": [
        -1,
        -1,
        -1
      ],
      "type": "VEC3"
    },
    {
      "bufferView": 2,
      "componentType": 5123,
      "count": 19524,
      "max": [
        5912
      ],
      "min": [
        0
      ],
      "type": "SCALAR"
    },
    {
      "bufferView": 3,
      "componentType": 5126,
      "count": 566,
      "max": [
        235.20025634765625,
        216.36224365234375,
        330.80364990234375
      ],
      "min": [
        227.17233276367188,
        99.71746063232422,
        246.17654418945312
      ],
      "type": "VEC3"
    },
    {
      "bufferView": 4,
      "componentType": 5126,
      "count": 566,
      "max": [
        0.996852695941925,
        0.9928004741668701,
        0.9927088618278503
      ],
      "min": [
        -0.996798038482666,
        -0.9928004741668701,
        -0.9927088618278503
      ],
      "type": "VEC3"
    },
    {
      "bufferView": 5,
      "componentType": 5123,
      "count": 2742,
      "max": [
        565
      ],
      "min": [
        0
      ],
      "type": "SCALAR"
    },
    {
      "bufferView": 6,
      "componentType": 5126,
      "count": 566,
      "max": [
        166.6235809326172,
        215.41233825683594,
        294.1725769042969
      ],
      "min": [
        160.0614013671875,
        99.75624084472656,
        210.5454559326172
      ],
      "type": "VEC3"
    },
    {
      "bufferView": 7,
      "componentType": 5126,
      "count": 566,
      "max": [
        0.997187614440918,
        0.9933410286903381,
        0.9927088618278503
      ],
      "min": [
        -0.9972073435783386,
        -0.9933410286903381,
        -0.9927088618278503
      ],
      "type": "VEC3"
    },
    {
      "bufferView": 8,
      "componentType": 5123,
      "count": 2742,
      "max": [
        565
      ],
      "min": [
        0
      ],
      "type": "SCALAR"
    },
    {
      "bufferView": 9,
      "componentType": 5126,
      "count": 566,
      "max": [
        193.88612365722656,
        215.4123992919922,
        296.2469787597656
      ],
      "min": [
        187.66458129882812,
        99.7639389038086,
        212.61985778808594
      ],
      "type": "VEC3"
    },
    {
      "bufferView": 10,
      "componentType": 5126,
      "count": 566,
      "max": [
        0.9969494342803955,
        0.9929891228675842,
        0.9927088618278503
      ],
      "min": [
        -0.9967727065086365,
        -0.9929891228675842,
        -0.9927088618278503
      ],
      "type": "VEC3"
    },
    {
      "bufferView": 11,
      "componentType": 5123,
      "count": 2742,
      "max": [
        565
      ],
      "min": [
        0
      ],
      "type": "SCALAR"
    },
    {
      "bufferView": 12,
      "componentType": 5126,
      "count": 566,
      "max": [
        83.3351058959961,
        149.9148712158203,
        293.2029724121094
      ],
      "min": [
        77.17658996582031,
        34.267940521240234,
        209.57586669921875
      ],
      "type": "VEC3"
    },
    {
      "bufferView": 13,
      "componentType": 5126,
      "count": 566,
      "max": [
        0.9969167709350586,
        0.9929230213165283,
        0.9927088618278503
      ],
      "min": [
        -0.996777355670929,
        -0.9929230213165283,
        -0.9927088618278503
      ],
      "type": "VEC3"
    },
    {
      "bufferView": 14,
      "componentType": 5123,
      "count": 2742,
      "max": [
        565
      ],
      "min": [
        0
      ],
      "type": "SCALAR"
    },
    {
      "bufferView": 15,
      "componentType": 5126,
      "count": 566,
      "max": [
        172.63140869140625,
        149.91490173339844,
        292.5951232910156
      ],
      "min": [
        165.9750518798828,
        34.25688934326172,
        208.968017578125
      ],
      "type": "VEC3"
    },
    {
      "bufferView": 16,
      "componentType": 5126,
      "count": 566,
      "max": [
        0.997166633605957,
        0.9934366941452026,
        0.9927088618278503
      ],
      "min": [
        -0.9967321753501892,
        -0.9934366941452026,
        -0.9927088618278503
      ],
      "type": "VEC3"
    },
    {
      "bufferView": 17,
      "componentType": 5123,
      "count": 2742,
      "max": [
        565
      ],
      "min": [
        0
      ],
      "type": "SCALAR"
    }
  ],
  "materials": [
    {
      "pbrMetallicRoughness": {
        "metallicFactor": 0,
        "roughnessFactor": 0.3
      },
      "doubleSided": true,
      "name": "Mat_1"
    },
    {
      "pbrMetallicRoughness": {
        "metallicFactor": 0,
        "roughnessFactor": 0.3
      },
      "doubleSided": true,
      "name": "Mat_2"
    },
    {
      "pbrMetallicRoughness": {
        "metallicFactor": 0,
        "roughnessFactor": 0.3
      },
      "doubleSided": true,
      "name": "Mat_3"
    },
    {
      "pbrMetallicRoughness": {
        "metallicFactor": 0,
        "roughnessFactor": 0.3
      },
      "doubleSided": true,
      "name": "Mat_4"
    },
    {
      "pbrMetallicRoughness": {
        "metallicFactor": 0,
        "roughnessFactor": 0.3
      },
      "doubleSided": true,
      "name": "Mat_5"
    },
    {
      "pbrMetallicRoughness": {
        "metallicFactor": 0,
        "roughnessFactor": 0.3
      },
      "doubleSided": true,
      "name": "Mat_6"
    }
  ],
  "meshes": [
    {
      "primitives": [
        {
          "mode": 4,
          "attributes": {
            "POSITION": 0,
            "NORMAL": 1
          },
          "indices": 2,
          "material": 0
        }
      ]
    },
    {
      "primitives": [
        {
          "mode": 4,
          "attributes": {
            "POSITION": 3,
            "NORMAL": 4
          },
          "indices": 5,
          "material": 1
        }
      ]
    },
    {
      "primitives": [
        {
          "mode": 4,
          "attributes": {
            "POSITION": 6,
            "NORMAL": 7
          },
          "indices": 8,
          "material": 2
        }
      ]
    },
    {
      "primitives": [
        {
          "mode": 4,
          "attributes": {
            "POSITION": 9,
            "NORMAL": 10
          },
          "indices": 11,
          "material": 3
        }
      ]
    },
    {
      "primitives": [
        {
          "mode": 4,
          "attributes": {
            "POSITION": 12,
            "NORMAL": 13
          },
          "indices": 14,
          "material": 4
        }
      ]
    },
    {
      "primitives": [
        {
          "mode": 4,
          "attributes": {
            "POSITION": 15,
            "NORMAL": 16
          },
          "indices": 17,
          "material": 5
        }
      ]
    }
  ]
}