{
  "asset": {
    "version": "2.0",
    "generator": "3dpea GLTFExporter"
  },
  "scenes": [
    {
      "name": "AuxScene",
      "nodes": [
        11
      ]
    }
  ],
  "scene": 0,
  "nodes": [
    {
      "name": "KD200",
      "mesh": 0
    },
    {
      "name": "KD200",
      "children": [
        0
      ]
    },
    {
      "name": "8mm_hortum",
      "mesh": 1
    },
    {
      "name": "8mm_hortum",
      "children": [
        2
      ]
    },
    {
      "name": "6mm_hortum",
      "mesh": 2
    },
    {
      "name": "6mm_hortum",
      "children": [
        4
      ]
    },
    {
      "name": "6mm_hortum",
      "mesh": 3
    },
    {
      "name": "6mm_hortum",
      "children": [
        6
      ]
    },
    {
      "name": "6mm_hortum",
      "mesh": 4
    },
    {
      "name": "6mm_hortum",
      "children": [
        8
      ]
    },
    {
      "name": "KD200",
      "children": [
        1,
        3,
        5,
        7,
        9
      ]
    },
    {
      "name": "KX200",
      "children": [
        10
      ]
    }
  ],
  "bufferViews": [
    {
      "buffer": 0,
      "byteOffset": 0,
      "byteLength": 65820,
      "target": 34962,
      "byteStride": 12
    },
    {
      "buffer": 0,
      "byteOffset": 65820,
      "byteLength": 65820,
      "target": 34962,
      "byteStride": 12
    },
    {
      "buffer": 0,
      "byteOffset": 131640,
      "byteLength": 36552,
      "target": 34963
    },
    {
      "buffer": 0,
      "byteOffset": 168192,
      "byteLength": 6792,
      "target": 34962,
      "byteStride": 12
    },
    {
      "buffer": 0,
      "byteOffset": 174984,
      "byteLength": 6792,
      "target": 34962,
      "byteStride": 12
    },
    {
      "buffer": 0,
      "byteOffset": 181776,
      "byteLength": 5484,
      "target": 34963
    },
    {
      "buffer": 0,
      "byteOffset": 187260,
      "byteLength": 6792,
      "target": 34962,
      "byteStride": 12
    },
    {
      "buffer": 0,
      "byteOffset": 194052,
      "byteLength": 6792,
      "target": 34962,
      "byteStride": 12
    },
    {
      "buffer": 0,
      "byteOffset": 200844,
      "byteLength": 5484,
      "target": 34963
    },
    {
      "buffer": 0,
      "byteOffset": 206328,
      "byteLength": 6792,
      "target": 34962,
      "byteStride": 12
    },
    {
      "buffer": 0,
      "byteOffset": 213120,
      "byteLength": 6792,
      "target": 34962,
      "byteStride": 12
    },
    {
      "buffer": 0,
      "byteOffset": 219912,
      "byteLength": 5484,
      "target": 34963
    },
    {
      "buffer": 0,
      "byteOffset": 225396,
      "byteLength": 6792,
      "target": 34962,
      "byteStride": 12
    },
    {
      "buffer": 0,
      "byteOffset": 232188,
      "byteLength": 6792,
      "target": 34962,
      "byteStride": 12
    },
    {
      "buffer": 0,
      "byteOffset": 238980,
      "byteLength": 5484,
      "target": 34963
    }
  ],
  "buffers": [
    {
      "byteLength": 244464,
      "uri": "data:application/octet-stream;base64,"
    }
  ],
  "accessors": [
    {
      "bufferView": 0,
      "componentType": 5126,
      "count": 5485,
      "max": [
        305.1123352050781,
        234.3148193359375,
        277.94598388671875
      ],
      "min": [
        25.112346649169922,
        75.8148193359375,
        51.64598846435547
      ],
      "type": "VEC3"
    },
    {
      "bufferView": 1,
      "componentType": 5126,
      "count": 5485,
      "max": [
        1,
        1,
        1
      ],
      "min": [
        -1,
        -1,
        -1
      ],
      "type": "VEC3"
    },
    {
      "bufferView": 2,
      "componentType": 5123,
      "count": 18276,
      "max": [
        5484
      ],
      "min": [
        0
      ],
      "type": "SCALAR"
    },
    {
      "bufferView": 3,
      "componentType": 5126,
      "count": 566,
      "max": [
        235.20025634765625,
        216.36224365234375,
        330.80364990234375
      ],
      "min": [
        227.17233276367188,
        99.71746063232422,
        246.17654418945312
      ],
      "type": "VEC3"
    },
    {
      "bufferView": 4,
      "componentType": 5126,
      "count": 566,
      "max": [
        0.996852695941925,
        0.9928004741668701,
        0.9927088618278503
      ],
      "min": [
        -0.996798038482666,
        -0.9928004741668701,
        -0.9927088618278503
      ],
      "type": "VEC3"
    },
    {
      "bufferView": 5,
      "componentType": 5123,
      "count": 2742,
      "max": [
        565
      ],
      "min": [
        0
      ],
      "type": "SCALAR"
    },
    {
      "bufferView": 6,
      "componentType": 5126,
      "count": 566,
      "max": [
        166.6235809326172,
        215.41233825683594,
        294.1725769042969
      ],
      "min": [
        160.0614013671875,
        99.75624084472656,
        210.5454559326172
      ],
      "type": "VEC3"
    },
    {
      "bufferView": 7,
      "componentType": 5126,
      "count": 566,
      "max": [
        0.997187614440918,
        0.9933410286903381,
        0.9927088618278503
      ],
      "min": [
        -0.9972073435783386,
        -0.9933410286903381,
        -0.9927088618278503
      ],
      "type": "VEC3"
    },
    {
      "bufferView": 8,
      "componentType": 5123,
      "count": 2742,
      "max": [
        565
      ],
      "min": [
        0
      ],
      "type": "SCALAR"
    },
    {
      "bufferView": 9,
      "componentType": 5126,
      "count": 566,
      "max": [
        193.88612365722656,
        215.4123992919922,
        296.2469787597656
      ],
      "min": [
        187.66458129882812,
        99.7639389038086,
        212.61985778808594
      ],
      "type": "VEC3"
    },
    {
      "bufferView": 10,
      "componentType": 5126,
      "count": 566,
      "max": [
        0.9969494342803955,
        0.9929891228675842,
        0.9927088618278503
      ],
      "min": [
        -0.9967727065086365,
        -0.9929891228675842,
        -0.9927088618278503
      ],
      "type": "VEC3"
    },
    {
      "bufferView": 11,
      "componentType": 5123,
      "count": 2742,
      "max": [
        565
      ],
      "min": [
        0
      ],
      "type": "SCALAR"
    },
    {
      "bufferView": 12,
      "componentType": 5126,
      "count": 566,
      "max": [
        111.48737335205078,
        149.9148712158203,
        293.341064453125
      ],
      "min": [
        105.07579803466797,
        34.26203536987305,
        209.7139434814453
      ],
      "type": "VEC3"
    },
    {
      "bufferView": 13,
      "componentType": 5126,
      "count": 566,
      "max": [
        0.997046172618866,
        0.9931865334510803,
        0.9927088618278503
      ],
      "min": [
        -0.9967567920684814,
        -0.9931865334510803,
        -0.9927088618278503
      ],
      "type": "VEC3"
    },
    {
      "bufferView": 14,
      "componentType": 5123,
      "count": 2742,
      "max": [
        565
      ],
      "min": [
        0
      ],
      "type": "SCALAR"
    }
  ],
  "materials": [
    {
      "pbrMetallicRoughness": {
        "metallicFactor": 0,
        "roughnessFactor": 0.3
      },
      "doubleSided": true,
      "name": "Mat_1"
    },
    {
      "pbrMetallicRoughness": {
        "metallicFactor": 0,
        "roughnessFactor": 0.3
      },
      "doubleSided": true,
      "name": "Mat_2"
    },
    {
      "pbrMetallicRoughness": {
        "metallicFactor": 0,
        "roughnessFactor": 0.3
      },
      "doubleSided": true,
      "name": "Mat_3"
    },
    {
      "pbrMetallicRoughness": {
        "metallicFactor": 0,
        "roughnessFactor": 0.3
      },
      "doubleSided": true,
      "name": "Mat_4"
    },
    {
      "pbrMetallicRoughness": {
        "metallicFactor": 0,
        "roughnessFactor": 0.3
      },
      "doubleSided": true,
      "name": "Mat_5"
    }
  ],
  "meshes": [
    {
      "primitives": [
        {
          "mode": 4,
          "attributes": {
            "POSITION": 0,
            "NORMAL": 1
          },
          "indices": 2,
          "material": 0
        }
      ]
    },
    {
      "primitives": [
        {
          "mode": 4,
          "attributes": {
            "POSITION": 3,
            "NORMAL": 4
          },
          "indices": 5,
          "material": 1
        }
      ]
    },
    {
      "primitives": [
        {
          "mode": 4,
          "attributes": {
            "POSITION": 6,
            "NORMAL": 7
          },
          "indices": 8,
          "material": 2
        }
      ]
    },
    {
      "primitives": [
        {
          "mode": 4,
          "attributes": {
            "POSITION": 9,
            "NORMAL": 10
          },
          "indices": 11,
          "material": 3
        }
      ]
    },
    {
      "primitives": [
        {
          "mode": 4,
          "attributes": {
            "POSITION": 12,
            "NORMAL": 13
          },
          "indices": 14,
          "material": 4
        }
      ]
    }
  ]
}